:SAMPLES-PER-SECOND 30
:FULLY-SPECIFIED
:DEGREES
158
root  16.09111095 38.25666773 -9.497066558 -9.560779572 -69.14250183 8.343830109
lowerback  11.65209961 2.302730083 -2.21216011
upperback  3.822619915 2.580359936 -2.536600113
thorax  -2.510849953 1.231780052 -1.739680052
lowerneck  -5.146949768 11.45069981 -5.67001009
upperneck  11.93080044 16.09810066 -2.156179905
head  4.607279778 7.484759808 1.073779941
lclavicle  0 -9.442270133e-015 7.951389973e-016
lhumerus  7.041160107 11.03979969 60.46630096
lradius  2.698053388e-031 -2.278014915e-031 139.8249969
lwrist  -7.062250077e-031 -1.765562519e-031 10.37269974
lhand  -1.496451383e-031 -27.76390076 20.11240005
lfingers  90 7.125020027 -90
lthumb  89.89689403 5.08795885 91.16245106
rclavicle  0 -9.442270133e-015 7.951389973e-016
rhumerus  -0.6933699846 27.8390007 -74.7440033
rradius  -2.561641989e-031 2.430397984e-031 136.5059967
rwrist  1.412450015e-030 -0 -8.842860222
rhand  -7.920061211e-032 -33.2840004 9.303460121
rfingers  -90 -7.125020027 -90
rthumb  -92.93752616 -24.25625642 -97.11982154
rfemur  -13.43809986 23.24169922 1.843170047
rtibia  -0 0 53.07540131
rfoot  -0 -22.63540077 -11.67879963
rtoes  5.373923086 19.29304026 -105.8922705
lfemur  -21.8416996 2.975219965 4.258200169
ltibia  -0 0 52.94029999
lfoot  5.532179196e-032 -4.191440105 1.423529983
ltoes  -4.250644065 -19.5611806 -102.515957
159
root  15.97815536 38.03533419 -9.387089136 -8.558119774 -68.63999939 6.957039833
lowerback  11.61250019 2.176779985 -1.823940039
upperback  3.640870094 2.456330061 -2.661109924
thorax  -2.658449888 1.174309969 -2.073299885
lowerneck  -5.392509937 11.60639954 -5.504580021
upperneck  12.02719975 16.32069969 -2.148940086
head  4.701749802 7.592860222 1.085569978
lclavicle  0 -9.442270133e-015 7.951389973e-016
lhumerus  5.40734005 10.65709972 60.30179977
lradius  2.742103929e-031 -2.224794391e-031 140.9459991
lwrist  -7.062250077e-031 -1.765562519e-031 8.892530441
lhand  -1.496451383e-031 -27.76390076 20.11240005
lfingers  90 7.125020027 -90
lthumb  89.89689403 5.08795885 91.16245106
rclavicle  0 -9.442270133e-015 7.951389973e-016
rhumerus  -2.267760038 28.42679977 -74.98799896
rradius  -2.562066548e-031 2.429950419e-031 136.5160065
rwrist  7.062250077e-031 -1.765562519e-031 -9.223130226
rhand  -7.920061211e-032 -33.2840004 9.303460121
rfingers  -90 -7.125020027 -90
rthumb  -92.93752616 -24.25625642 -97.11982154
rfemur  -12.25580025 23.74570084 2.536509991
rtibia  -0 0 52.92050171
rfoot  -0 -23.62509918 -11.75189972
rtoes  5.373923086 19.29304026 -105.8922705
lfemur  -21.67580032 2.261209965 5.046919823
ltibia  -0 0 51.99879837
lfoot  4.83611303e-032 -3.378079891 0.1704200059
ltoes  -4.250644065 -19.5611806 -102.515957
160
root  15.87337734 37.81755703 -9.264599808 -7.994420052 -67.97029877 6.021210194
lowerback  11.47399998 2.110790014 -1.808799982
upperback  3.583770037 2.377549887 -2.679409981
thorax  -2.642610073 1.136919975 -2.085890055
lowerneck  -5.682169914 11.70269966 -5.44907999
upperneck  11.97159958 16.48520088 -2.280829906
head  4.754499912 7.666369915 1.063850045
lclavicle  0 -9.442270133e-015 7.951389973e-016
lhumerus  3.859260082 10.15159988 60.63560104
lradius  2.786165314e-031 -2.169360938e-031 142.0950012
lwrist  -1.412450015e-030 -0 7.420269966
lhand  -1.496451383e-031 -27.76390076 20.11240005
lfingers  90 7.125020027 -90
lthumb  89.89689403 5.08795885 91.16245106
rclavicle  0 -9.442270133e-015 7.951389973e-016
rhumerus  -3.736040115 28.83139992 -74.85099792
rradius  -2.567572892e-031 2.42413149e-031 136.6459961
rwrist  7.062250077e-031 -3.531125038e-031 -10.25979996
rhand  -7.920061211e-032 -33.2840004 9.303460121
rfingers  -90 -7.125020027 -90
rthumb  -92.93752616 -24.25625642 -97.11982154
rfemur  -11.14920044 23.79490089 3.086009979
rtibia  -0 0 53.00419998
rfoot  -0 -24.37719917 -12.18260002
rtoes  5.373923086 19.29304026 -105.8922705
lfemur  -21.58189964 1.465180039 5.497449875
ltibia  -0 0 51.10509872
lfoot  4.418183786e-032 -2.521420002 -0.9593619704
ltoes  -4.250644065 -19.5611806 -102.515957
161
root  15.77146635 37.61666666 -9.129755516 -8.079990387 -67.24980164 5.764430046
lowerback  11.53660011 2.125260115 -2.011539936
upperback  3.441679955 2.365560055 -2.784699917
thorax  -2.828739882 1.132210016 -2.086590052
lowerneck  -5.993989944 11.78709984 -5.399869919
upperneck  12.02140045 16.63730049 -2.372370005
head  4.847109795 7.729690075 1.062459946
lclavicle  0 -9.442270133e-015 7.951389973e-016
lhumerus  2.144860029 9.4478302 61.24480057
lradius  2.830543968e-031 -2.111128817e-031 143.2830048
lwrist  0 -3.531125038e-031 5.771120071
lhand  -1.496451383e-031 -27.76390076 20.11240005
lfingers  90 7.125020027 -90
lthumb  89.89689403 5.08795885 91.16245106
rclavicle  0 -9.442270133e-015 7.951389973e-016
rhumerus  -5.655829906 29.3878994 -74.73429871
rradius  -2.57230658e-031 2.419107872e-031 136.7579956
rwrist  7.062250077e-031 -1.765562519e-031 -10.37069988
rhand  -7.920061211e-032 -33.2840004 9.303460121
rfingers  -90 -7.125020027 -90
rthumb  -92.93752616 -24.25625642 -97.11982154
rfemur  -10.18690014 23.48970032 3.317250013
rtibia  -0 0 53.29629898
rfoot  -0 -25.02020073 -12.60410023
rtoes  5.373923086 19.29304026 -105.8922705
lfemur  -21.50790024 0.8328629732 5.526800156
ltibia  -0 0 50.31700134
lfoot  6.624820922e-032 -1.981529951 -1.861469984
ltoes  -4.250644065 -19.5611806 -102.515957
162
root  15.67051054 37.43444428 -8.983222331 -8.237139702 -66.5338974 5.542069912
lowerback  11.78509998 2.171040058 -2.198120117
upperback  3.231620073 2.384530067 -2.912329912
thorax  -3.185450077 1.143249989 -2.134059906
lowerneck  -6.09800005 11.85900021 -5.373929977
upperneck  11.86839962 16.74200058 -2.434920073
head  4.817890167 7.784629822 1.044999957
lclavicle  0 -9.442270133e-015 7.951389973e-016
lhumerus  0.2130970061 8.647620201 61.86299896
lradius  2.877889603e-031 -2.046117169e-031 144.5879974
lwrist  -7.062250077e-031 -1.765562519e-031 4.066599846
lhand  -1.496451383e-031 -27.76390076 20.11240005
lfingers  90 7.125020027 -90
lthumb  89.89689403 5.08795885 91.16245106
rclavicle  0 -9.442270133e-015 7.951389973e-016
rhumerus  -7.918019772 29.91600037 -74.53700256
rradius  -2.577283729e-031 2.413804594e-031 136.8760071
rwrist  1.412450015e-030 1.765562519e-031 -10.47809982
rhand  -7.920061211e-032 -33.2840004 9.303460121
rfingers  -90 -7.125020027 -90
rthumb  -92.93752616 -24.25625642 -97.11982154
rfemur  -9.321009636 22.98629951 3.511240005
rtibia  -0 0 53.73130035
rfoot  -0 -25.79229927 -12.60910034
rtoes  5.373923086 19.29304026 -105.8922705
lfemur  -21.4321003 0.3055379987 5.428380013
ltibia  -0 0 49.73590088
lfoot  4.417844912e-032 -2.419559956 -2.445280075
ltoes  -4.250644065 -19.5611806 -102.515957
163
root  15.56697755 37.26644441 -8.826977437 -7.993010044 -65.76450348 4.875279903
lowerback  12.0092001 2.317100048 -2.629610062
upperback  3.068900108 2.524179935 -2.701109886
thorax  -3.503540039 1.217120051 -1.706640005
lowerneck  -6.080989838 11.83180046 -5.756859779
upperneck  11.44040012 16.73150063 -2.558830023
head  4.632959843 7.77850008 1.037909985
lclavicle  0 -9.442270133e-015 7.951389973e-016
lhumerus  -1.74443996 7.868929863 63.1332016
lradius  2.919866787e-031 -1.985754764e-031 145.7810059
lwrist  -3.531125038e-031 -0 2.519079924
lhand  -1.496451383e-031 -27.76390076 20.11240005
lfingers  90 7.125020027 -90
lthumb  89.89689403 5.08795885 91.16245106
rclavicle  0 -9.442270133e-015 7.951389973e-016
rhumerus  -10.22280025 30.42099953 -73.82080078
rradius  -2.574374961e-031 2.416906617e-031 136.8070068
rwrist  0 -0 -10.64850044
rhand  -7.920061211e-032 -33.2840004 9.303460121
rfingers  -90 -7.125020027 -90
rthumb  -92.93752616 -24.25625642 -97.11982154
rfemur  -8.474740028 22.3512001 3.928129911
rtibia  -0 0 54.23649979
rfoot  -0 -26.45429993 -12.6225996
rtoes  5.373923086 19.29304026 -105.8922705
lfemur  -21.42880058 -0.05404939875 5.406300068
ltibia  -0 0 49.48339844
lfoot  6.634443484e-032 -3.667109966 -2.443949938
ltoes  -4.250644065 -19.5611806 -102.515957
